# xmcd
#
# Track frame offsets:
# 182
# 30545
# 51277
# 77082
# 93040
# 119127
# 138150
# 155370
# 176042
# 199942
#
# Disc length: 3127 seconds
#
# Revision: 2
# Processed by: cddbd v1.5.2PL0 Copyright (c) Steve Scherf et al.
# Submitted via: TinyPlayer 2.8
#
DISCID=810c350a
DTITLE=Various Artist - Skynyrd Frynds
DYEAR=1994
DGENRE=Country Rock
TTITLE0=Alabama - Sweet Home Alabama
TTITLE1=Travis Tritt - Don't Ask Me No Questions
TTITLE2=Confederate Railroad - Simple Man
TTITLE3=Sammy Kershaw - I Know a Little
TTITLE4=Hank Williams, Jr. - Tuesday's Gone
TTITLE5=The Mavericks - Call Me the Breeze
TTITLE6=Steve Earle - What's Your Name?
TTITLE7=Charlie Daniels - One More Time
TTITLE8=Terry McBride and The Ride - Saturday Night Special
TTITLE9=Wynonna - Free Bird
EXTD=UPC: 008811109721 - Catalogue number: MCD 11097 - Label: MCA Records - ASIN: B000008NLM - Release Date: 1994 10 - Discogs: r1895164 - MUSICBRAINZ_ALBUMID: 90e001ef-81be-413c-a5a4-b4ffdf31279a - AMG: r207229 -  
EXTT0=
EXTT1=
EXTT2=
EXTT3=
EXTT4=
EXTT5=
EXTT6=
EXTT7=
EXTT8=
EXTT9=
PLAYORDER=
